<?xml version="1.0" encoding="UTF-8" standalone="no"?>
<!DOCTYPE svg PUBLIC "-//W3C//DTD SVG 1.1//EN"
 "http://www.w3.org/Graphics/SVG/1.1/DTD/svg11.dtd">
<!-- Generated by graphviz version 2.43.0 (0)
 -->
<!-- Title: id Pages: 1 -->
<svg width="842pt" height="188pt"
 viewBox="0.00 0.00 842.28 188.00" xmlns="http://www.w3.org/2000/svg" xmlns:xlink="http://www.w3.org/1999/xlink">
<g id="graph0" class="graph" transform="scale(1 1) rotate(0) translate(4 184)">
<title>id</title>
<polygon fill="white" stroke="transparent" points="-4,4 -4,-184 838.28,-184 838.28,4 -4,4"/>
<!-- 0.1353352832366127 -->
<g id="node1" class="node">
<title>0.1353352832366127</title>
<ellipse fill="none" stroke="black" cx="171.28" cy="-18" rx="113.18" ry="18"/>
<text text-anchor="middle" x="171.28" y="-14.3" font-family="Times,serif" font-size="14.00">0.1353352832366127</text>
</g>
<!-- 0.1353352832366127&#45;&#45;0.1353352832366127 -->
<g id="edge1" class="edge">
<title>0.1353352832366127&#45;&#45;0.1353352832366127</title>
<path fill="none" stroke="black" d="M246.72,-31.42C276.97,-32.18 302.37,-27.7 302.37,-18 302.37,-8.3 276.97,-3.82 246.72,-4.58"/>
</g>
<!-- _tanh_ -->
<g id="node2" class="node">
<title>_tanh_</title>
<ellipse fill="none" stroke="black" cx="698.28" cy="-162" rx="40.09" ry="18"/>
<text text-anchor="middle" x="698.28" y="-158.3" font-family="Times,serif" font-size="14.00">_tanh_</text>
</g>
<!-- 23 -->
<g id="node3" class="node">
<title>23</title>
<ellipse fill="none" stroke="black" cx="508.28" cy="-162" rx="27" ry="18"/>
<text text-anchor="middle" x="508.28" y="-158.3" font-family="Times,serif" font-size="14.00">23</text>
</g>
<!-- 23&#45;&#45;0.1353352832366127 -->
<g id="edge18" class="edge">
<title>23&#45;&#45;0.1353352832366127</title>
<path fill="none" stroke="black" d="M481.34,-160.2C382.12,-156.98 41.1,-143.38 9.28,-108 -24.14,-70.84 43.07,-45.95 100.83,-32.16"/>
</g>
<!-- _minus_62_star_ -->
<g id="node5" class="node">
<title>_minus_62_star_</title>
<ellipse fill="none" stroke="black" cx="407.28" cy="-18" rx="87.18" ry="18"/>
<text text-anchor="middle" x="407.28" y="-14.3" font-family="Times,serif" font-size="14.00">_minus_62_star_</text>
</g>
<!-- 23&#45;&#45;_minus_62_star_ -->
<g id="edge12" class="edge">
<title>23&#45;&#45;_minus_62_star_</title>
<path fill="none" stroke="black" d="M501.62,-144.32C493.75,-125.7 479.53,-95.15 462.28,-72 452.22,-58.5 438.6,-45.35 427.44,-35.52"/>
</g>
<!-- 57 -->
<g id="node9" class="node">
<title>57</title>
<ellipse fill="none" stroke="black" cx="536.28" cy="-90" rx="27" ry="18"/>
<text text-anchor="middle" x="536.28" y="-86.3" font-family="Times,serif" font-size="14.00">57</text>
</g>
<!-- 23&#45;&#45;57 -->
<g id="edge5" class="edge">
<title>23&#45;&#45;57</title>
<path fill="none" stroke="black" d="M514.92,-144.41C519.38,-133.25 525.24,-118.6 529.69,-107.47"/>
</g>
<!-- _minus_31_minus_ -->
<g id="node12" class="node">
<title>_minus_31_minus_</title>
<ellipse fill="none" stroke="black" cx="609.28" cy="-18" rx="96.68" ry="18"/>
<text text-anchor="middle" x="609.28" y="-14.3" font-family="Times,serif" font-size="14.00">_minus_31_minus_</text>
</g>
<!-- 23&#45;&#45;_minus_31_minus_ -->
<g id="edge14" class="edge">
<title>23&#45;&#45;_minus_31_minus_</title>
<path fill="none" stroke="black" d="M531.01,-152.2C549.83,-143.73 575.75,-129.07 590.28,-108 605.17,-86.41 608.74,-55.4 609.41,-36.26"/>
</g>
<!-- _minus_62 -->
<g id="node4" class="node">
<title>_minus_62</title>
<ellipse fill="none" stroke="black" cx="183.28" cy="-90" rx="59.59" ry="18"/>
<text text-anchor="middle" x="183.28" y="-86.3" font-family="Times,serif" font-size="14.00">_minus_62</text>
</g>
<!-- _minus_62&#45;&#45;0.1353352832366127 -->
<g id="edge10" class="edge">
<title>_minus_62&#45;&#45;0.1353352832366127</title>
<path fill="none" stroke="black" d="M180.31,-71.7C178.45,-60.85 176.07,-46.92 174.21,-36.1"/>
</g>
<!-- _minus_62&#45;&#45;_minus_62_star_ -->
<g id="edge2" class="edge">
<title>_minus_62&#45;&#45;_minus_62_star_</title>
<path fill="none" stroke="black" d="M223.33,-76.49C262.09,-64.37 320.78,-46.03 361.4,-33.34"/>
</g>
<!-- 88 -->
<g id="node6" class="node">
<title>88</title>
<ellipse fill="none" stroke="black" cx="426.28" cy="-90" rx="27" ry="18"/>
<text text-anchor="middle" x="426.28" y="-86.3" font-family="Times,serif" font-size="14.00">88</text>
</g>
<!-- 88&#45;&#45;0.1353352832366127 -->
<g id="edge8" class="edge">
<title>88&#45;&#45;0.1353352832366127</title>
<path fill="none" stroke="black" d="M405.64,-78.38C400.69,-76.07 395.36,-73.79 390.28,-72 341.59,-54.81 284.88,-41.26 241.38,-32.16"/>
</g>
<!-- 88&#45;&#45;_minus_62_star_ -->
<g id="edge6" class="edge">
<title>88&#45;&#45;_minus_62_star_</title>
<path fill="none" stroke="black" d="M421.68,-72.05C418.74,-61.21 414.93,-47.18 411.97,-36.28"/>
</g>
<!-- 88&#45;&#45;_minus_31_minus_ -->
<g id="edge21" class="edge">
<title>88&#45;&#45;_minus_31_minus_</title>
<path fill="none" stroke="black" d="M449.09,-80.28C478.98,-68.84 531.93,-48.59 568.73,-34.51"/>
</g>
<!-- 2 -->
<g id="node7" class="node">
<title>2</title>
<ellipse fill="none" stroke="black" cx="78.28" cy="-90" rx="27" ry="18"/>
<text text-anchor="middle" x="78.28" y="-86.3" font-family="Times,serif" font-size="14.00">2</text>
</g>
<!-- 2&#45;&#45;0.1353352832366127 -->
<g id="edge22" class="edge">
<title>2&#45;&#45;0.1353352832366127</title>
<path fill="none" stroke="black" d="M95.77,-75.83C110.82,-64.51 132.62,-48.1 148.93,-35.82"/>
</g>
<!-- 2&#45;&#45;_minus_62_star_ -->
<g id="edge23" class="edge">
<title>2&#45;&#45;_minus_62_star_</title>
<path fill="none" stroke="black" d="M98.84,-78.16C103.8,-75.87 109.15,-73.64 114.28,-72 119.75,-70.25 258.88,-45.38 343.42,-30.34"/>
</g>
<!-- 34 -->
<g id="node8" class="node">
<title>34</title>
<ellipse fill="none" stroke="black" cx="613.28" cy="-162" rx="27" ry="18"/>
<text text-anchor="middle" x="613.28" y="-158.3" font-family="Times,serif" font-size="14.00">34</text>
</g>
<!-- 34&#45;&#45;0.1353352832366127 -->
<g id="edge16" class="edge">
<title>34&#45;&#45;0.1353352832366127</title>
<path fill="none" stroke="black" d="M588.9,-153.92C575.78,-150.38 559.27,-146.37 544.28,-144 489.04,-135.28 80.38,-148.93 42.28,-108 31.38,-96.29 33.37,-85.29 42.28,-72 55.56,-52.19 77.72,-39.78 99.95,-32"/>
</g>
<!-- 34&#45;&#45;_minus_62_star_ -->
<g id="edge17" class="edge">
<title>34&#45;&#45;_minus_62_star_</title>
<path fill="none" stroke="black" d="M613.63,-143.85C613.08,-123.94 609.07,-91.35 590.28,-72 573.51,-54.74 516.69,-39.98 470.76,-30.45"/>
</g>
<!-- 34&#45;&#45;57 -->
<g id="edge20" class="edge">
<title>34&#45;&#45;57</title>
<path fill="none" stroke="black" d="M597.7,-146.83C584.25,-134.61 564.94,-117.05 551.58,-104.91"/>
</g>
<!-- 34&#45;&#45;_minus_31_minus_ -->
<g id="edge15" class="edge">
<title>34&#45;&#45;_minus_31_minus_</title>
<path fill="none" stroke="black" d="M630.54,-147.79C641.65,-138.14 655.12,-123.98 661.28,-108 667.03,-93.07 667.33,-86.81 661.28,-72 655.38,-57.56 643.44,-44.93 632.49,-35.63"/>
</g>
<!-- 57&#45;&#45;0.1353352832366127 -->
<g id="edge19" class="edge">
<title>57&#45;&#45;0.1353352832366127</title>
<path fill="none" stroke="black" d="M511.34,-82.97C497.02,-79.59 478.68,-75.37 462.28,-72 388.84,-56.89 304.52,-41.77 245.62,-31.58"/>
</g>
<!-- 57&#45;&#45;_minus_62_star_ -->
<g id="edge13" class="edge">
<title>57&#45;&#45;_minus_62_star_</title>
<path fill="none" stroke="black" d="M515.84,-77.91C494.53,-66.34 460.92,-48.11 436.74,-34.99"/>
</g>
<!-- 57&#45;&#45;57 -->
<g id="edge3" class="edge">
<title>57&#45;&#45;57</title>
<path fill="none" stroke="black" d="M556.17,-102.43C568.97,-105.68 581.28,-101.53 581.28,-90 581.28,-78.47 568.97,-74.32 556.17,-77.57"/>
</g>
<!-- 57&#45;&#45;_minus_31_minus_ -->
<g id="edge9" class="edge">
<title>57&#45;&#45;_minus_31_minus_</title>
<path fill="none" stroke="black" d="M551.05,-74.83C562.8,-63.57 579.27,-47.77 591.7,-35.86"/>
</g>
<!-- _plus_ -->
<g id="node10" class="node">
<title>_plus_</title>
<ellipse fill="none" stroke="black" cx="795.28" cy="-162" rx="38.99" ry="18"/>
<text text-anchor="middle" x="795.28" y="-158.3" font-family="Times,serif" font-size="14.00">_plus_</text>
</g>
<!-- _minus_31 -->
<g id="node11" class="node">
<title>_minus_31</title>
<ellipse fill="none" stroke="black" cx="321.28" cy="-90" rx="59.59" ry="18"/>
<text text-anchor="middle" x="321.28" y="-86.3" font-family="Times,serif" font-size="14.00">_minus_31</text>
</g>
<!-- _minus_31&#45;&#45;0.1353352832366127 -->
<g id="edge11" class="edge">
<title>_minus_31&#45;&#45;0.1353352832366127</title>
<path fill="none" stroke="black" d="M290.2,-74.5C265.66,-63.04 231.43,-47.07 205.99,-35.2"/>
</g>
<!-- _minus_31&#45;&#45;_minus_62_star_ -->
<g id="edge7" class="edge">
<title>_minus_31&#45;&#45;_minus_62_star_</title>
<path fill="none" stroke="black" d="M341.23,-72.76C354.92,-61.62 373.05,-46.87 386.84,-35.63"/>
</g>
<!-- _minus_31&#45;&#45;_minus_31_minus_ -->
<g id="edge4" class="edge">
<title>_minus_31&#45;&#45;_minus_31_minus_</title>
<path fill="none" stroke="black" d="M366.18,-77.91C374.21,-75.93 382.49,-73.9 390.28,-72 445.38,-58.54 508.32,-43.33 552.54,-32.66"/>
</g>
</g>
</svg>
